<mxfile host="app.diagrams.net" modified="2021-05-27T20:48:54.403Z" agent="5.0 (Macintosh; Intel Mac OS X 10_15_7) AppleWebKit/605.1.15 (KHTML, like Gecko) Version/14.0.3 Safari/605.1.15" etag="tQwFKxmGrJok7omT-tzO" version="14.7.2" type="github">
  <diagram id="_mIrhGSLpp9kIBfSV_T9" name="Page-1">
    <mxGraphModel dx="595" dy="539" grid="1" gridSize="10" guides="1" tooltips="1" connect="1" arrows="1" fold="1" page="1" pageScale="1" pageWidth="827" pageHeight="1169" math="0" shadow="0">
      <root>
        <mxCell id="0" />
        <mxCell id="1" parent="0" />
        <mxCell id="ZoIi8nxnlXmlVmmQI6Re-1" value="GDELT Project &lt;br&gt;HTML Data" style="rounded=0;whiteSpace=wrap;html=1;" vertex="1" parent="1">
          <mxGeometry x="40" y="40" width="120" height="60" as="geometry" />
        </mxCell>
        <mxCell id="ZoIi8nxnlXmlVmmQI6Re-2" value="AWS S3" style="rounded=0;whiteSpace=wrap;html=1;" vertex="1" parent="1">
          <mxGeometry x="240" y="40" width="120" height="60" as="geometry" />
        </mxCell>
        <mxCell id="ZoIi8nxnlXmlVmmQI6Re-3" value="AWS Redshift" style="rounded=0;whiteSpace=wrap;html=1;" vertex="1" parent="1">
          <mxGeometry x="440" y="40" width="120" height="60" as="geometry" />
        </mxCell>
        <mxCell id="ZoIi8nxnlXmlVmmQI6Re-4" value="&lt;h1&gt;Link:&lt;/h1&gt;&lt;p&gt;https://aws.amazon.com/big-data/datalakes-and-analytics/&lt;/p&gt;&lt;p&gt;- This link is useful as a reference to which AWS services to implement for my architecture diagram.&lt;/p&gt;" style="text;html=1;strokeColor=none;fillColor=none;spacing=5;spacingTop=-20;whiteSpace=wrap;overflow=hidden;rounded=0;" vertex="1" parent="1">
          <mxGeometry x="40" y="240" width="290" height="150" as="geometry" />
        </mxCell>
        <mxCell id="ZoIi8nxnlXmlVmmQI6Re-5" value="" style="endArrow=classic;html=1;exitX=1;exitY=0.5;exitDx=0;exitDy=0;" edge="1" parent="1" source="ZoIi8nxnlXmlVmmQI6Re-1" target="ZoIi8nxnlXmlVmmQI6Re-2">
          <mxGeometry width="50" height="50" relative="1" as="geometry">
            <mxPoint x="300" y="260" as="sourcePoint" />
            <mxPoint x="350" y="210" as="targetPoint" />
          </mxGeometry>
        </mxCell>
        <mxCell id="ZoIi8nxnlXmlVmmQI6Re-6" value="" style="endArrow=classic;html=1;entryX=0;entryY=0.5;entryDx=0;entryDy=0;exitX=1;exitY=0;exitDx=0;exitDy=0;" edge="1" parent="1" source="ZoIi8nxnlXmlVmmQI6Re-11" target="ZoIi8nxnlXmlVmmQI6Re-3">
          <mxGeometry width="50" height="50" relative="1" as="geometry">
            <mxPoint x="360" y="70" as="sourcePoint" />
            <mxPoint x="250" y="80" as="targetPoint" />
          </mxGeometry>
        </mxCell>
        <mxCell id="ZoIi8nxnlXmlVmmQI6Re-9" value="Python Script for ELT using PySpark" style="text;html=1;strokeColor=none;fillColor=none;align=center;verticalAlign=middle;whiteSpace=wrap;rounded=0;" vertex="1" parent="1">
          <mxGeometry x="160" y="120" width="80" height="20" as="geometry" />
        </mxCell>
        <mxCell id="ZoIi8nxnlXmlVmmQI6Re-11" value="PySpark" style="rounded=0;whiteSpace=wrap;html=1;" vertex="1" parent="1">
          <mxGeometry x="300" y="160" width="70" height="60" as="geometry" />
        </mxCell>
        <mxCell id="ZoIi8nxnlXmlVmmQI6Re-13" value="" style="endArrow=classic;html=1;exitX=0.75;exitY=1;exitDx=0;exitDy=0;" edge="1" parent="1" source="ZoIi8nxnlXmlVmmQI6Re-2">
          <mxGeometry width="50" height="50" relative="1" as="geometry">
            <mxPoint x="277" y="160" as="sourcePoint" />
            <mxPoint x="330" y="160" as="targetPoint" />
          </mxGeometry>
        </mxCell>
      </root>
    </mxGraphModel>
  </diagram>
</mxfile>
